<?xml version="1.0" encoding="UTF-8"?>
<svg id="Layer_1" data-name="Layer 1" xmlns="http://www.w3.org/2000/svg" version="1.1" viewBox="0 0 150 26.22">
  <defs>
    <style>
      .cls-1 {
        fill: #231f20;
      }

      .cls-1, .cls-2 {
        stroke-width: 0px;
      }

      .cls-2 {
        fill: #e61c43;
      }
    </style>
  </defs>
  <path class="cls-2" d="M17.75,0h-8.6C4.1,0,0,4.1,0,9.15v7.92C0,22.12,4.1,26.22,9.15,26.22h8.6c5.05,0,9.15-4.1,9.15-9.15v-7.92C26.9,4.1,22.8,0,17.75,0ZM11.56,8c.91-.91,2.39-.91,3.3,0,.91.91.91,2.39,0,3.3-.91.91-2.39.91-3.3,0s-.91-2.39,0-3.3ZM16.28,17.65c-1.67,1.67-4.4,1.67-6.07,0l-4.66-4.66,1.69-1.69,4.66,4.66c.74.74,1.94.74,2.68,0l5.06-5.06,1.69,1.69-5.06,5.06Z"/>
  <g>
    <path class="cls-1" d="M38.82,8.73h-3.13c-.65,0-1.18-.53-1.18-1.18v-.77c0-.65.53-1.18,1.18-1.18h9.56c.65,0,1.18.53,1.18,1.18v.77c0,.65-.53,1.18-1.18,1.18h-2.95v10.61c0,.65-.53,1.18-1.18,1.18h-1.11c-.65,0-1.18-.53-1.18-1.18v-10.61Z"/>
    <path class="cls-1" d="M58.92,6.77v.77c0,.65-.53,1.18-1.18,1.18h-3.76c-1.79,0-2.5,1.19-2.56,3.24h5.15c.65,0,1.18.53,1.18,1.18v.79c0,.65-.53,1.18-1.18,1.18h-5.15v2.24h6.32c.65,0,1.18.53,1.18,1.18v.79c0,.65-.53,1.18-1.18,1.18h-8.62c-.65,0-1.18-.53-1.18-1.18v-8.18c0-4.42,3.2-5.52,5.91-5.57h3.89c.65,0,1.18.53,1.18,1.18Z"/>
    <path class="cls-1" d="M60.84,14.95V6.77c0-.65.53-1.18,1.18-1.18h1.11c.65,0,1.18.53,1.18,1.18v7.63c0,1.81.87,2.99,2.56,2.99l2.91-.02c.66,0,1.19.53,1.19,1.18v.78c0,.65-.53,1.18-1.18,1.18h-3.04c-2.71-.04-5.91-1.15-5.91-5.57Z"/>
    <path class="cls-1" d="M83.87,6.77v.77c0,.65-.53,1.18-1.18,1.18h-3.76c-1.79,0-2.5,1.19-2.56,3.24h5.15c.65,0,1.18.53,1.18,1.18v.79c0,.65-.53,1.18-1.18,1.18h-5.15v2.24h6.32c.65,0,1.18.53,1.18,1.18v.79c0,.65-.53,1.18-1.18,1.18h-8.62c-.65,0-1.18-.53-1.18-1.18v-8.18c0-4.42,3.2-5.52,5.91-5.57h3.89c.65,0,1.18.53,1.18,1.18Z"/>
    <path class="cls-1" d="M87.19,5.59h1.11c.65,0,1.18.53,1.18,1.18v5.19h5.48v-5.19c0-.65.53-1.18,1.18-1.18h1.11c.65,0,1.18.53,1.18,1.18v12.56c0,.65-.53,1.18-1.18,1.18h-1.11c-.65,0-1.18-.53-1.18-1.18v-4.21h-5.48v4.21c0,.65-.53,1.18-1.18,1.18h-1.11c-.65,0-1.18-.53-1.18-1.18V6.77c0-.65.53-1.18,1.18-1.18Z"/>
    <path class="cls-1" d="M107.8,5.23c-3.2,0-7,1.15-7,5.97v4.1c0,4.63,3.8,5.74,7,5.74.66,0,1.35-.05,2.02-.17-.59-.61-.95-1.44-.95-2.35,0-.08,0-.17.01-.25-.35.08-.72.12-1.08.12-1.73,0-3.52-.79-3.52-3.07v-4.22c0-2.41,1.79-3.18,3.52-3.18s3.52.77,3.52,3.18v4.18c.3-.09.61-.14.94-.14.97,0,1.84.41,2.46,1.06.04-.28.06-.59.06-.9v-4.1c0-4.82-3.8-5.97-6.98-5.97Z"/>
    <circle class="cls-2" cx="112.26" cy="18.52" r="2.31"/>
    <path class="cls-1" d="M126.08,20.52c-.65,0-1.18-.53-1.18-1.18v-8.39c0-2.35-1.13-3.11-2.22-3.11s-2.3.77-2.3,3.11v8.39c0,.65-.53,1.18-1.18,1.18h-1.11c-.65,0-1.18-.53-1.18-1.18v-8.44c0-4.61,3.22-5.72,5.78-5.72,1.79,0,3.86.53,4.95,2.43.77-1.51,2.39-2.33,4.05-2.33,2.45,0,4.99,1.77,4.99,5.61v8.44c0,.65-.53,1.18-1.18,1.18h-1.11c-.65,0-1.18-.53-1.18-1.18v-8.44c0-2.13-1.32-3.05-2.58-3.05-1.11,0-2.15.66-2.32,1.81.06.36.09.79.09,1.24v8.44c0,.65-.53,1.18-1.18,1.18h-1.11Z"/>
    <path class="cls-1" d="M150,6.77v.77c0,.65-.53,1.18-1.18,1.18h-3.76c-1.79,0-2.5,1.19-2.56,3.24h5.15c.65,0,1.18.53,1.18,1.18v.79c0,.65-.53,1.18-1.18,1.18h-5.15v2.24h6.32c.65,0,1.18.53,1.18,1.18v.79c0,.65-.53,1.18-1.18,1.18h-8.62c-.65,0-1.18-.53-1.18-1.18v-8.18c0-4.42,3.2-5.52,5.91-5.57h3.89c.65,0,1.18.53,1.18,1.18Z"/>
  </g>
</svg>