<?xml version="1.0" encoding="UTF-8"?>
<svg id="Layer_1" data-name="Layer 1" xmlns="http://www.w3.org/2000/svg" viewBox="0 0 426.82 197.4">
  <defs>
    <style>
      .cls-1 {
        fill: #2b2c6e;
      }

      .cls-2 {
        fill: #e72933;
      }

      .cls-3 {
        fill: #db232a;
      }
    </style>
  </defs>
  <polygon class="cls-2" points="47.6 88.26 106.96 28.91 168.3 90.25 182.75 75.79 106.95 0 92.5 14.45 92.5 14.45 0 106.96 14.45 121.41 27.16 108.7 27.16 176.96 27.16 197.1 27.16 197.4 171.18 197.4 171.18 176.96 47.6 176.96 47.6 88.26"/>
  <g>
    <path class="cls-1" d="m64.02,110.47h30.14c1.34,0,2.47.46,3.39,1.38s1.38,2.05,1.38,3.39-.46,2.47-1.38,3.39c-.92.92-2.05,1.38-3.39,1.38h-9.04v32.34c0,1.68-.59,3.1-1.76,4.27s-2.6,1.76-4.27,1.76-3.1-.59-4.27-1.76c-1.17-1.17-1.76-2.59-1.76-4.27v-32.34h-9.04c-1.34,0-2.47-.46-3.39-1.38s-1.38-2.05-1.38-3.39.46-2.47,1.38-3.39c.92-.92,2.05-1.38,3.39-1.38Z"/>
    <path class="cls-1" d="m104.28,115.81c0-3.56,1.78-5.34,5.34-5.34h23.11c1.3,0,2.43.48,3.39,1.44.96.96,1.44,2.12,1.44,3.45s-.48,2.43-1.44,3.39-2.09,1.44-3.39,1.44h-16.52v9.23h13.63c1.3,0,2.41.46,3.33,1.38s1.38,2.03,1.38,3.33-.46,2.47-1.38,3.39c-.92.92-2.03,1.38-3.33,1.38h-13.63v9.23h17.77c1.3,0,2.43.48,3.39,1.44.96.96,1.44,2.09,1.44,3.39s-.48,2.49-1.44,3.45c-.96.96-2.1,1.44-3.39,1.44h-24.37c-3.56,0-5.34-1.78-5.34-5.34v-36.74Z"/>
    <path class="cls-1" d="m145.54,116c0-1.67.59-3.1,1.76-4.27s2.6-1.76,4.27-1.76,3.1.59,4.27,1.76c1.17,1.17,1.76,2.6,1.76,4.27v32.03h16.58c1.34,0,2.49.48,3.45,1.44.96.96,1.44,2.11,1.44,3.45s-.48,2.56-1.44,3.52c-.97.96-2.12,1.44-3.45,1.44h-23.3c-3.56,0-5.34-1.78-5.34-5.34v-36.55Z"/>
    <path class="cls-1" d="m185.04,115.81c0-3.56,1.78-5.34,5.34-5.34h23.11c1.3,0,2.43.48,3.39,1.44.96.96,1.44,2.12,1.44,3.45s-.48,2.43-1.44,3.39-2.09,1.44-3.39,1.44h-16.52v9.23h13.63c1.3,0,2.41.46,3.33,1.38s1.38,2.03,1.38,3.33-.46,2.47-1.38,3.39c-.92.92-2.03,1.38-3.33,1.38h-13.63v9.23h17.77c1.3,0,2.43.48,3.39,1.44.96.96,1.44,2.09,1.44,3.39s-.48,2.49-1.44,3.45c-.96.96-2.1,1.44-3.39,1.44h-24.37c-3.56,0-5.34-1.78-5.34-5.34v-36.74Z"/>
    <path class="cls-1" d="m226.3,116c0-1.67.59-3.1,1.76-4.27s2.6-1.76,4.27-1.76,3.1.59,4.27,1.76c1.17,1.17,1.76,2.6,1.76,4.27v12.75h17.33v-12.75c0-1.67.59-3.1,1.76-4.27,1.17-1.17,2.6-1.76,4.27-1.76s3.1.59,4.27,1.76,1.76,2.6,1.76,4.27v36.36c0,1.68-.59,3.1-1.76,4.27-1.17,1.17-2.6,1.76-4.27,1.76s-3.1-.59-4.27-1.76c-1.17-1.17-1.76-2.59-1.76-4.27v-13.81h-17.33v13.81c0,1.68-.59,3.1-1.76,4.27s-2.6,1.76-4.27,1.76-3.1-.59-4.27-1.76c-1.17-1.17-1.76-2.59-1.76-4.27v-36.36Z"/>
    <path class="cls-1" d="m298.46,109.47c7.24,0,12.94,2.26,17.08,6.78,4.1,4.44,6.16,10.41,6.16,17.9s-2.07,13.48-6.22,17.96c-4.19,4.52-9.9,6.78-17.15,6.78s-12.94-2.26-17.08-6.78c-4.1-4.48-6.16-10.47-6.16-17.96s2.07-13.46,6.22-17.9c4.23-4.52,9.94-6.78,17.14-6.78Zm-.06,39.88c3.27,0,5.8-1.19,7.6-3.58,2.01-2.64,3.01-6.51,3.01-11.62s-1-8.98-3.01-11.62c-1.84-2.35-4.38-3.52-7.6-3.52s-5.69,1.17-7.54,3.52c-2.05,2.6-3.08,6.47-3.08,11.62s1.02,9.02,3.08,11.62c1.84,2.39,4.35,3.58,7.54,3.58Z"/>
    <path class="cls-1" d="m329.04,119.33c0-2.55.92-4.75,2.76-6.59,1.84-1.84,4.04-2.76,6.59-2.76,2.05,0,3.87.59,5.46,1.76,1.59,1.13,2.7,2.62,3.33,4.46l7.47,21.16c.59,1.63.96,3.04,1.13,4.21l.31,1.76h.38l.31-1.76.19-.88.25-.94c.21-.88.46-1.68.75-2.39l7.47-21.42c.59-1.8,1.65-3.22,3.2-4.27,1.59-1.13,3.35-1.69,5.27-1.69,2.51,0,4.6.88,6.28,2.64,1.76,1.67,2.64,3.77,2.64,6.28v33.66c0,1.55-.56,2.93-1.7,4.14-1.17,1.13-2.57,1.7-4.21,1.7s-2.93-.57-4.14-1.7c-1.13-1.21-1.7-2.6-1.7-4.14v-26.69h-.38l-.5,2.58c-.25,1.38-.77,3.25-1.57,5.59l-7.03,20.16c-.42,1.17-1.17,2.18-2.26,3.02-1.05.79-2.26,1.19-3.64,1.19s-2.62-.4-3.71-1.19c-1-.75-1.74-1.76-2.2-3.02l-7.1-20.16c-.63-1.8-1.15-3.66-1.57-5.59-.29-1.46-.46-2.32-.5-2.58h-.38v26.94c0,1.55-.54,2.87-1.63,3.96s-2.41,1.63-3.96,1.63-2.85-.54-4.02-1.63c-1.09-1.09-1.63-2.41-1.63-3.96v-33.47Z"/>
    <path class="cls-1" d="m392.28,115.81c0-3.56,1.78-5.34,5.34-5.34h23.11c1.3,0,2.43.48,3.39,1.44.96.96,1.44,2.12,1.44,3.45s-.48,2.43-1.44,3.39c-.96.96-2.09,1.44-3.39,1.44h-16.52v9.23h13.63c1.3,0,2.41.46,3.33,1.38s1.38,2.03,1.38,3.33-.46,2.47-1.38,3.39c-.92.92-2.03,1.38-3.33,1.38h-13.63v9.23h17.77c1.3,0,2.43.48,3.39,1.44.96.96,1.44,2.09,1.44,3.39s-.48,2.49-1.44,3.45c-.96.96-2.1,1.44-3.39,1.44h-24.37c-3.56,0-5.34-1.78-5.34-5.34v-36.74Z"/>
  </g>
  <g>
    <path class="cls-3" d="m190.38,180.15c0-1.42.71-2.13,2.13-2.13h9.24c.52,0,.97.19,1.36.58.38.39.58.85.58,1.38s-.19.97-.58,1.36c-.39.38-.84.58-1.36.58h-6.6v3.69h5.45c.52,0,.96.18,1.33.55.37.37.55.81.55,1.33s-.18.99-.55,1.36c-.37.37-.81.55-1.33.55h-5.45v3.69h7.11c.52,0,.97.19,1.36.58.38.39.58.84.58,1.36s-.19,1-.58,1.38-.84.58-1.36.58h-9.74c-1.42,0-2.13-.71-2.13-2.13v-14.69Z"/>
    <path class="cls-3" d="m211.9,180.22c0-.67.23-1.24.7-1.71s1.04-.7,1.71-.7,1.24.23,1.71.7.7,1.04.7,1.71v12.81h6.63c.54,0,1,.19,1.38.58.38.38.58.85.58,1.38s-.19,1.02-.58,1.41c-.39.39-.85.58-1.38.58h-9.32c-1.42,0-2.13-.71-2.13-2.13v-14.62Z"/>
    <path class="cls-3" d="m232.72,180.15c0-1.42.71-2.13,2.13-2.13h9.24c.52,0,.97.19,1.36.58.38.39.58.85.58,1.38s-.19.97-.58,1.36c-.39.38-.84.58-1.36.58h-6.61v3.69h5.45c.52,0,.96.18,1.33.55.37.37.55.81.55,1.33s-.18.99-.55,1.36c-.37.37-.81.55-1.33.55h-5.45v3.69h7.11c.52,0,.97.19,1.36.58s.58.84.58,1.36-.19,1-.58,1.38c-.38.39-.84.58-1.36.58h-9.75c-1.42,0-2.13-.71-2.13-2.13v-14.69Z"/>
    <path class="cls-3" d="m262.71,177.61c1.79,0,3.42.34,4.87,1.03,1.67.8,2.51,1.9,2.51,3.29,0,.64-.23,1.18-.68,1.63-.44.44-.97.65-1.61.65-.5,0-.95-.15-1.33-.45-.08-.07-.24-.21-.45-.43l-.43-.53c-.37-.45-.72-.78-1.05-.98-.52-.28-1.13-.43-1.83-.43-1.27,0-2.28.48-3.01,1.43-.8,1.02-1.21,2.55-1.21,4.6s.42,3.66,1.26,4.75c.74.95,1.72,1.43,2.96,1.43s2.19-.53,3.01-1.58l.2-.28.23-.28c.08-.1.17-.2.25-.3.07-.05.15-.12.25-.2.38-.33.84-.5,1.38-.5.64,0,1.19.23,1.66.68.45.47.68,1.03.68,1.68,0,1.44-.85,2.59-2.56,3.44-1.47.75-3.17,1.13-5.1,1.13-3.01,0-5.32-.87-6.93-2.61-1.57-1.67-2.36-4.05-2.36-7.13s.84-5.43,2.51-7.26c1.69-1.86,3.95-2.79,6.78-2.79Z"/>
    <path class="cls-3" d="m278.33,178.01h12.06c.54,0,.99.18,1.36.55s.55.82.55,1.36-.18.99-.55,1.36-.82.55-1.36.55h-3.62v12.93c0,.67-.23,1.24-.7,1.71s-1.04.7-1.71.7-1.24-.23-1.71-.7-.7-1.04-.7-1.71v-12.93h-3.62c-.54,0-.99-.18-1.36-.55s-.55-.82-.55-1.36.18-.99.55-1.36.82-.55,1.36-.55Z"/>
    <path class="cls-3" d="m299.45,180.15c0-1.42.71-2.13,2.13-2.13h6.15c2.19,0,3.9.5,5.12,1.51,1.26,1.02,1.88,2.45,1.88,4.29,0,2.48-1.12,4.27-3.37,5.37v.05l2.36,4.55c.18.33.28.69.28,1.08,0,.64-.23,1.18-.68,1.63s-1,.68-1.66.68c-.94,0-1.62-.42-2.06-1.26l-2.81-5.42h-2.54v4.27c0,.67-.24,1.24-.7,1.71-.47.47-1.04.7-1.71.7s-1.24-.23-1.71-.7-.7-1.04-.7-1.71v-14.62Zm7.26,6.53c2.06,0,3.09-.85,3.09-2.54s-1.03-2.59-3.09-2.59h-2.44v5.12h2.44Z"/>
    <path class="cls-3" d="m331.15,177.61c2.9,0,5.17.9,6.83,2.71,1.64,1.77,2.46,4.16,2.46,7.16s-.83,5.39-2.49,7.18c-1.67,1.81-3.96,2.71-6.86,2.71s-5.17-.9-6.83-2.71c-1.64-1.79-2.46-4.19-2.46-7.18s.83-5.38,2.49-7.16c1.69-1.81,3.98-2.71,6.86-2.71Zm-.02,15.95c1.31,0,2.32-.48,3.04-1.43.8-1.05,1.21-2.6,1.21-4.65s-.4-3.59-1.21-4.65c-.74-.94-1.75-1.41-3.04-1.41s-2.28.47-3.01,1.41c-.82,1.04-1.23,2.59-1.23,4.65s.41,3.61,1.23,4.65c.74.96,1.74,1.43,3.01,1.43Z"/>
    <path class="cls-3" d="m348.4,181.07c0-.87.32-1.64.95-2.31.64-.64,1.41-.95,2.31-.95,1.21,0,2.13.53,2.79,1.58l5.02,8.34c.27.42.63,1.14,1.08,2.16h.13v-9.9c0-.6.22-1.12.65-1.56s.94-.63,1.56-.63,1.14.21,1.56.63c.42.42.63.94.63,1.56v14.12c0,.84-.3,1.56-.9,2.16s-1.32.9-2.16.9c-1.17,0-2.05-.49-2.64-1.48l-5.27-8.69c-.54-.87-.91-1.61-1.13-2.21h-.13v10.17c0,.6-.22,1.12-.65,1.56s-.95.65-1.56.65-1.15-.22-1.58-.65c-.44-.44-.65-.95-.65-1.56v-13.89Z"/>
    <path class="cls-3" d="m373.87,180.22c0-.67.23-1.24.7-1.71s1.04-.7,1.71-.7,1.24.23,1.71.7c.47.47.7,1.04.7,1.71v14.54c0,.67-.24,1.24-.7,1.71-.47.47-1.04.7-1.71.7s-1.24-.23-1.71-.7-.7-1.04-.7-1.71v-14.54Z"/>
    <path class="cls-3" d="m395.94,177.61c1.79,0,3.42.34,4.87,1.03,1.67.8,2.51,1.9,2.51,3.29,0,.64-.23,1.18-.68,1.63-.44.44-.97.65-1.61.65-.5,0-.95-.15-1.33-.45-.08-.07-.24-.21-.45-.43l-.43-.53c-.37-.45-.72-.78-1.05-.98-.52-.28-1.13-.43-1.83-.43-1.27,0-2.28.48-3.01,1.43-.8,1.02-1.21,2.55-1.21,4.6s.42,3.66,1.26,4.75c.74.95,1.72,1.43,2.96,1.43s2.19-.53,3.01-1.58l.2-.28.23-.28c.08-.1.17-.2.25-.3.07-.05.15-.12.25-.2.38-.33.84-.5,1.38-.5.64,0,1.19.23,1.66.68.45.47.68,1.03.68,1.68,0,1.44-.85,2.59-2.56,3.44-1.47.75-3.17,1.13-5.1,1.13-3.01,0-5.32-.87-6.93-2.61-1.57-1.67-2.36-4.05-2.36-7.13s.84-5.43,2.51-7.26c1.69-1.86,3.95-2.79,6.78-2.79Z"/>
    <path class="cls-3" d="m418.42,177.56c1.72,0,3.26.31,4.62.93,1.66.75,2.49,1.75,2.49,2.99,0,.62-.21,1.11-.63,1.48-.42.4-.94.6-1.56.6-.47,0-.9-.12-1.28-.35l-.1-.08-.12-.1-.25-.2-.48-.43c-.82-.75-1.76-1.13-2.81-1.13-.8,0-1.44.16-1.91.48-.45.32-.68.7-.68,1.16,0,1,.79,1.67,2.39,2.01l3.06.65c3.58.77,5.38,2.65,5.38,5.63,0,1.79-.59,3.22-1.76,4.29-1.37,1.27-3.43,1.91-6.18,1.91-2.16,0-3.96-.3-5.4-.9-1.71-.74-2.56-1.77-2.56-3.09,0-.64.23-1.14.68-1.51.43-.38.97-.58,1.61-.58.47,0,.91.1,1.33.3l.28.15.28.18.53.38c.97.67,1.99,1,3.06,1,2.06,0,3.09-.6,3.09-1.81,0-.92-.76-1.54-2.29-1.86l-3.09-.65c-3.5-.75-5.25-2.63-5.25-5.63,0-1.69.66-3.07,1.98-4.14,1.37-1.12,3.23-1.68,5.58-1.68Z"/>
  </g>
</svg>