<?xml version="1.0" encoding="UTF-8" standalone="no"?>
<!-- Created with Inkscape (http://www.inkscape.org/) -->

<svg
   version="1.1"
   id="svg1115"
   width="536.19702"
   height="635.5578"
   viewBox="0 0 536.19702 635.5578"
   sodipodi:docname="1.svg"
   inkscape:version="1.2.2 (732a01da63, 2022-12-09, custom)"
   xmlns:inkscape="http://www.inkscape.org/namespaces/inkscape"
   xmlns:sodipodi="http://sodipodi.sourceforge.net/DTD/sodipodi-0.dtd"
   xmlns="http://www.w3.org/2000/svg"
   xmlns:svg="http://www.w3.org/2000/svg">
  <defs
     id="defs1119" />
  <sodipodi:namedview
     id="namedview1117"
     pagecolor="#ffffff"
     bordercolor="#000000"
     borderopacity="0.25"
     inkscape:showpageshadow="2"
     inkscape:pageopacity="0.0"
     inkscape:pagecheckerboard="0"
     inkscape:deskcolor="#d1d1d1"
     showgrid="false"
     inkscape:zoom="0.51316815"
     inkscape:cx="214.35469"
     inkscape:cy="85.741876"
     inkscape:window-width="1920"
     inkscape:window-height="1031"
     inkscape:window-x="0"
     inkscape:window-y="25"
     inkscape:window-maximized="1"
     inkscape:current-layer="layer4" />
  <g
     inkscape:groupmode="layer"
     id="layer4"
     inkscape:label="Layer 1">
    <path
       style="display:inline;fill:#000000;stroke-width:1.33333"
       d="M 238.84003,636.5287 C 204.74071,631.56607 180.67699,623.92971 147.5067,607.54502 100.81322,584.48046 58.162769,543.08574 33.754069,497.14155 21.600209,474.26447 13.636279,451.3654 6.520259,418.83483 3.691989,405.90548 3.667239,404.30242 3.206659,204.14154 L 2.742599,2.4748617 H 270.8411 538.9396 L 538.48346,199.47487 c -0.4053,175.03706 -0.70046,198.4865 -2.64744,210.33334 -7.00744,42.63823 -19.25328,74.48511 -41.45674,107.81362 -40.4254,60.68053 -106.09947,103.13984 -180.87257,116.93694 -19.78201,3.65017 -56.4704,4.61812 -74.66668,1.96993 z"
       transform="translate(-2.742599,-2.4748617)"
       id="black" />
    <path
       style="fill:#ffffff;stroke-width:1.33333"
       d="m 298.84005,628.54106 c 1.83333,-0.31341 8.92829,-1.51423 15.76657,-2.66848 55.88322,-9.43267 116.53917,-43.5957 152.80595,-86.06436 32.8343,-38.44918 49.91675,-73.95957 60.29225,-125.33334 2.08776,-10.33744 2.33012,-28.58564 2.75806,-207.66668 L 530.93207,10.474862 H 270.87723 10.822399 l 0.10064,192.333338 c 0.0806,153.98085 0.4574,194.59328 1.8898,203.66668 12.21068,77.34759 49.80902,136.78776 113.360521,179.21454 36.04256,24.06189 81.66873,39.81489 127.33334,43.9634 6.65056,0.60419 40.0934,-0.21596 45.33335,-1.11176 z"
       transform="translate(-2.742599,-2.4748617)"
       id="white" />
    <g
       id="layer2"
       inkscape:label="Horse"
       transform="translate(31.666263,44.802767)">
      <path
         style="display:inline;fill:#ff0000;stroke-width:1.33333"
         d="m 320.41304,542.22689 c -7.4065,-8.7434 -45.63974,-31.2938 -58.55176,-34.53452 -2.01494,-0.50574 -3.64022,-1.30443 -3.61171,-1.77494 0.0283,-0.47052 3.16839,-2.35544 6.97756,-4.18882 7.77517,-3.74211 22.95387,-14.95355 34.97063,-25.83027 l 8,-7.24105 -4.66667,-0.70904 c -2.56667,-0.38993 -9.46666,-1.33734 -15.33333,-2.10534 -5.86667,-0.76797 -17.86667,-2.34645 -26.66667,-3.50771 -8.8,-1.16126 -20.89475,-1.9228 -26.87726,-1.69232 -9.86949,0.38026 -11.35185,0.80281 -16,4.56083 -2.8175,2.27796 -9.62274,10.73152 -15.12273,18.78565 -5.50001,8.05418 -11.05456,16.0904 -12.34344,17.85827 -5.17124,7.09304 -18.0933,19.02429 -25.43402,23.48383 -7.2483,4.40338 -19.34231,9.05518 -20.50898,7.88852 -0.2824,-0.28233 0.68769,-4.07891 2.15574,-8.43678 2.66836,-7.92087 3.81039,-13.49457 10.17914,-49.67936 1.86746,-10.6103 4.76101,-23.2182 6.43006,-28.0176 l 3.03467,-8.72617 -3.65821,-5.04495 c -5.53599,-7.63453 -10.69674,-21.15122 -21.07804,-55.2062 -5.18963,-17.02419 -10.94525,-34.36643 -12.79026,-38.53829 -1.845,-4.17188 -3.12477,-7.815 -2.84396,-8.09583 0.28082,-0.28082 3.73859,0.75329 7.68394,2.29803 21.52273,8.4269 37.91841,21.20102 62.38245,48.6031 27.23987,30.51126 30.25059,32.71657 49.30566,36.1155 13.69104,2.44211 48.40348,2.39297 63.71407,-0.0903 15.94746,-2.58648 31.62485,-7.64281 39.02857,-12.58764 34.82309,-23.2577 31.37378,-55.82541 -7.96949,-75.24666 -11.10023,-5.47948 -30.35494,-12.21571 -31.53735,-11.03328 -0.88467,0.88466 4.97608,15.91916 9.73849,24.98205 2.72946,5.19416 7.99016,12.45557 11.69046,16.13647 5.71227,5.6823 6.42391,6.92278 4.71441,8.21784 -1.10736,0.83892 -6.67002,5.05365 -12.36143,9.36607 -5.69141,4.3124 -15.02009,12.23592 -20.73038,17.60776 l -10.38236,9.76698 -3.52983,-15.60775 c -4.78043,-21.13741 -7.55658,-43.99192 -7.55658,-62.2088 v -15.1312 l -9.66667,-2.05452 c -5.31667,-1.12998 -12.36667,-2.46585 -15.66667,-2.96861 -19.71716,-3.00389 -44.56876,-12.24983 -60.8251,-22.62975 l -6.82512,-4.35793 -11.17489,1.28394 c -11.67867,1.34183 -18.58443,0.95175 -40.16612,-2.26882 -23.06729,-3.44228 -27.2943,-2.6654 -43.675446,8.02717 -11.38501,7.4314 -14.167109,10.76459 -15.239762,18.25848 -1.156248,8.07786 -3.374018,10.00674 -8.882177,7.72519 -3.443289,-1.42627 -4.32638,-1.39801 -5.347805,0.17106 -1.639933,2.51921 -0.253871,7.91581 2.901914,11.2987 4.057671,4.34966 3.152058,7.83984 -3.569375,13.7563 -6.324691,5.56721 -19.53137,11.49274 -22.810359,10.23448 -1.443092,-0.55378 -1.664742,-2.56608 -0.99803,-9.06095 1.197078,-11.66157 2.646471,-16.62207 6.484467,-22.19292 2.014901,-2.92463 3.858993,-8.23395 4.685341,-13.48951 1.53422,-9.75773 -0.273978,-7.71897 24.833416,-28 16.169209,-13.06103 20.609039,-17.11701 20.609039,-18.82729 0,-2.9575 9.295167,-7.13426 19.223387,-8.63796 5.92714,-0.89771 13.65128,-2.92427 17.16477,-4.50346 l 6.38816,-2.87125 -5.72148,-2.98889 c -3.14684,-1.6439 -12.00886,-6.55491 -19.69341,-10.91336 l -13.971917,-7.92446 -13.36142,0.0484 c -17.667768,0.064 -32.694754,4.95665 -32.694754,10.64508 0,2.75667 -5.402631,8.63983 -7.934139,8.63983 -1.324003,0 -3.309071,-1.34999 -4.41128,-3 -2.001562,-2.99632 -2.007609,-2.99678 -4.936111,-0.36336 -2.28986,2.05912 -2.74483,3.51937 -2.07712,6.66667 2.08647,9.83466 1.64621,11.58241 -3.60941,14.32882 -9.98542,5.21804 -28.0851901,6.38647 -29.79776008,1.9236 -1.14055002,-2.97222 7.83277978,-17.29508 15.59311008,-24.88908 4.12167,-4.03333 9.38063,-10.41425 11.68657,-14.17981 4.74029,-7.74083 3.70074,-7.22925 32.152811,-15.82303 11.366653,-3.43324 23.344142,-7.78711 26.616612,-9.67525 7.044371,-4.06447 13.797661,-4.34346 23.383378,-0.966 4.99261,1.7591 10.34962,2.30088 21.33334,2.1575 8.06666,-0.10534 18.41666,0.60943 23,1.58829 6.13242,1.30969 8.33333,1.3751 8.33333,0.24771 0,-0.84263 0.95859,-4.75999 2.1302,-8.70523 1.63223,-5.49628 4.08533,-9.21531 10.49351,-15.90867 8.35488,-8.7267 10.38733,-12.76698 11.93893,-23.73312 1.4706,-10.39352 6.89508,-24.94905 12.52931,-33.61996 3.06609,-4.71862 5.57472,-10.035 5.57472,-11.8142 0,-2.86739 -0.44463,-3.14595 -3.91393,-2.45209 -2.15267,0.43053 -7.40267,-0.13879 -11.66667,-1.2651 -5.59619,-1.478241 -10.52008,-1.79608 -17.70129,-1.142623 -12.56039,1.142952 -15.21529,2.181233 -22.31774,8.728043 -5.51887,5.08712 -6.11077,5.30136 -14.08071,5.09651 -4.57581,-0.11758 -9.06966,-0.80911 -9.98632,-1.53666 -4.76342,-3.78065 1.08299,-10.69578 10.2871,-12.167579 3.37317,-0.539391 5.37956,-1.57093 5.37956,-2.765783 0,-5.258207 -9.21147,-4.950191 -15.43733,0.516193 -5.53939,4.863639 -7.70643,5.094119 -10.49283,1.11597 -1.66382,-2.375452 -1.9102,-5.117152 -1.22809,-13.66667 0.46931,-5.882302 1.39302,-11.745093 2.05267,-13.028421 1.88872,-3.67437 6.63395,-6.187789 17.22151,-9.12175 14.16428,-3.925115 29.99973,-12.543579 38.03232,-20.699112 7.28009,-7.391522 11.92795,-10.300146 18.83646,-11.787799 2.37493,-0.511409 4.63124,-1.436586 5.01402,-2.05595 0.38279,-0.619364 -1.41033,-5.748108 -3.9847,-11.397209 -2.57439,-5.649102 -4.6807,-10.4833245 -4.6807,-10.7427176 0,-1.1117999 7.72841,2.9003679 12.23536,6.3519376 L 203.33513,15.0301 202.55951,7.5150442 201.7839,-2.881884e-6 206.09521,2.5309511 c 5.47261,3.2126848 15.41366,12.9533189 18.4284,18.0568699 2.80219,4.743728 6.1615,5.807417 18.34081,5.807417 7.92198,0 11.14794,-0.789172 21.33334,-5.218808 10.51222,-4.571774 13.23981,-5.21243 22,-5.167355 10.43973,0.05372 10.9528,0.125522 25.87484,3.620792 9.64827,2.259971 21.59729,1.303215 25.64141,-2.0531 4.27511,-3.548029 1.33138,1.40544 -3.84958,6.477747 -8.49702,8.31882 -13.92413,10.110298 -27.61233,9.114774 -10.27269,-0.747118 -10.99602,-0.651488 -7.38768,0.976686 2.2,0.992694 8.07791,2.901487 13.06202,4.241763 7.66474,2.061124 10.09608,2.198173 15.76839,0.88885 10.62322,-2.452132 19.76149,-1.928239 25.70952,1.473918 5.3678,3.070288 13.8374,12.378527 12.4896,13.726318 -0.41819,0.418194 -3.25179,0.08946 -6.2969,-0.730492 -8.31954,-2.24022 -20.22709,-1.896933 -26.18653,0.754938 l -5.21276,2.319617 6.66667,0.943896 c 3.66666,0.519144 9.66666,2.013554 13.33333,3.320916 4.21628,1.503329 12.57192,2.67092 22.73285,3.176609 12.33908,0.614102 16.92735,1.364981 19.77824,3.23678 3.94375,2.58929 11.5739,10.588952 10.81943,11.343402 -0.2468,0.246992 -4.89369,-0.539751 -10.32601,-1.748323 -9.10295,-2.025218 -10.59885,-2.029976 -19.08996,-0.06081 -12.20418,2.830329 -21.06863,2.80789 -32.28587,-0.08171 -7.32332,-1.886539 -10.19503,-2.082387 -13.77386,-0.939397 l -4.52148,1.444059 5.83218,0.136101 c 3.61119,0.08428 9.92903,1.985892 16.59017,4.993493 l 10.758,4.857369 13.53122,-2.050431 c 14.49769,-2.196881 22.1391,-1.597701 27.91853,2.18914 3.14264,2.059132 12.59429,13.73198 12.67019,15.64774 0.0189,0.45897 -4.01696,-0.65856 -8.96697,-2.48343 -11.70614,-4.315582 -22.88861,-4.445159 -36.93205,-0.42797 -7.25113,2.07423 -12.69465,2.83043 -17.23454,2.39421 l -6.6358,-0.63761 3.9012,2.0788 c 3.06288,1.63211 7.76916,2.02191 21.9012,1.81396 15.97332,-0.23501 18.49166,0.037 22.36658,2.41529 4.56487,2.80187 6.96676,7.22637 6.96676,12.83356 v 3.31438 l -4.33334,-3.20401 c -8.6276,-6.37914 -15.0359,-7.13749 -29.88591,-3.53664 -7.80373,1.89225 -14.56296,2.68224 -20.02221,2.3401 -4.5328,-0.28406 -7.95234,-0.0487 -7.59898,0.52302 0.35334,0.57173 4.90476,2.33415 10.11426,3.91649 9.97686,3.03038 8.75452,3.07375 29.72617,-1.05478 l 4,-0.78745 -5.33333,5.61343 c -8.04471,8.46718 -14.12914,11.0977 -26.66667,11.52894 -6.47055,0.22258 -12.6704,-0.33959 -15.76024,-1.42901 -5.06003,-1.78408 -5.07762,-1.77827 -2.66982,0.88232 3.67159,4.05707 9.15399,6.46093 18.79199,8.23976 l 8.72878,1.61099 -8.42975,3.78305 c -7.29092,3.27196 -9.52833,3.68044 -16.56177,3.02366 -4.47263,-0.41767 -9.32466,-1.15437 -10.78229,-1.63713 -1.67161,-0.55362 -0.57682,1.14014 2.9648,4.58691 4.53263,4.41123 6.58883,5.47388 10.66667,5.51259 l 5.05163,0.048 -3.93089,3.21282 c -6.62605,5.41563 -13.06277,5.65531 -22.41022,0.83446 -7.08128,-3.65215 -18.32556,-5.74466 -18.32556,-3.41035 0,1.84454 4.01353,8.19682 6.69963,10.6036 1.63496,1.46493 7.40729,7.87838 12.82741,14.2521 5.42013,6.3737 12.61703,13.45277 15.99309,15.73125 l 6.13831,4.14269 2.09756,-3.06459 c 13.24055,-19.34477 57.69266,-50.83537 78.24403,-55.42927 l 5.33333,-1.19217 0.1319,13.44511 c 0.26684,27.19465 9.95925,49.05439 34.63374,78.11177 5.29311,6.23334 11.78619,13.40104 14.42906,15.92823 2.64291,2.52719 4.80526,4.94304 4.80526,5.36856 0,0.42553 -2.40473,0.54436 -5.34384,0.26407 -8.44403,-0.80527 -34.1023,6.30688 -36.44844,10.10304 -0.41401,0.66985 1.91271,4.7695 5.17047,9.11034 15.93241,21.22927 24.54036,48.54799 22.84093,72.48937 -3.3753,47.55158 -43.62572,91.99516 -95.54323,105.49651 -8.42125,2.18997 -8.68673,2.39217 -9.73225,7.41229 -2.48129,11.91409 -8.08868,31.22536 -12.51636,43.10506 -4.51397,12.11123 -14.27551,33.13164 -16.19408,34.87227 -0.49494,0.44904 -2.603,-1.19415 -4.6846,-3.65148 z"
         id="red" />
      <g
         id="layer1-3"
         inkscape:label="Lines"
         style="display:inline;fill:#000000">
        <path
           style="fill:#000000;stroke-width:1.33333"
           d="m 119.45088,245.59637 c 0.7273,-0.73334 7.5998,-1.33334 15.27222,-1.33334 11.62069,0 13.56329,0.28354 11.63459,1.69811 -2.87653,2.10975 -29.0096,1.75547 -26.90681,-0.36477 z"
           transform="translate(-35.773666,-40.534409)"
           id="path1322" />
        <path
           style="fill:#000000;stroke-width:1.33333"
           d="m 392.2562,246.9297 c 9.56383,-12.48115 34.38128,-34.46892 48.78537,-43.22286 9.77613,-5.94134 6.04273,-1.90516 -6.12053,6.61692 -6.75561,4.73327 -17.15197,13.40594 -23.10298,19.2726 -5.95103,5.86667 -13.70647,13.36667 -17.23431,16.66667 l -6.41427,6 z"
           transform="translate(-35.773666,-40.534409)"
           id="path1320" />
        <path
           style="fill:#000000;stroke-width:1.33333"
           d="m 407.97143,250.34094 c 7.47971,-7.86363 22.66656,-19.41192 30.69484,-23.34082 2.91784,-1.42793 5.84787,-2.87064 6.51118,-3.20601 0.6633,-0.33537 0.81328,0.0256 0.33329,0.80232 -0.48,0.77665 -4.02271,3.29592 -7.87268,5.59839 -10.77795,6.44569 -18.85195,12.32931 -23.11747,16.84595 -2.13537,2.26108 -5.98249,5.5056 -8.54916,7.21004 -4.18745,2.78074 -3.98208,2.37925 2,-3.90987 z"
           transform="translate(-35.773666,-40.534409)"
           id="path1318" />
        <path
           style="fill:#000000;stroke-width:1.33333"
           d="m 413.97143,264.04134 c 0,-2.89387 17.84579,-15.94813 30.72084,-22.47243 9.82514,-4.97877 8.01058,-1.65241 -2.14318,3.9288 -4.81563,2.647 -12.09222,7.35206 -16.17019,10.4557 -11.74184,8.93636 -12.40747,9.37026 -12.40747,8.08793 z"
           transform="translate(-35.773666,-40.534409)"
           id="path1316" />
        <path
           style="fill:#000000;stroke-width:1.33333"
           d="m 425.97143,271.13635 c 0,-1.21366 0.71133,-2.20665 1.58073,-2.20665 0.8694,0 2.8194,-1.14312 4.33334,-2.54027 4.31161,-3.979 20.44967,-12.38261 22.84711,-11.89721 1.30694,0.26461 -0.65568,1.89787 -4.96687,4.13332 -10.86336,5.63288 -18.87714,10.35568 -21.46098,12.64767 -2.11606,1.87706 -2.33333,1.86432 -2.33333,-0.13686 z"
           transform="translate(-35.773666,-40.534409)"
           id="path1314" />
        <path
           style="fill:#000000;stroke-width:1.33333"
           d="m 437.97143,279.13354 c 0,-2.59936 26.08227,-13.56145 27.35751,-11.49807 0.43993,0.71183 0.012,1.29423 -0.95012,1.29423 -0.96249,0 -5.94791,2.02352 -11.07869,4.49669 -9.80663,4.72708 -15.3287,6.78306 -15.3287,5.70715 z"
           transform="translate(-35.773666,-40.534409)"
           id="path1312" />
        <path
           style="fill:#000000;stroke-width:1.33333"
           d="m 457.97143,284.04709 c 8.17175,-3.17143 18.79242,-5.68704 17.33334,-4.10559 -1.14218,1.23799 -21.26466,7.65989 -23.69474,7.56197 -1.26789,-0.0511 1.59474,-1.60646 6.3614,-3.45638 z"
           transform="translate(-35.773666,-40.534409)"
           id="path1310" />
        <path
           style="fill:#000000;stroke-width:1.33333"
           d="m 459.90843,298.36498 c 1.01316,-1.63935 11.91748,-5.14445 19.39634,-6.23481 8.96142,-1.30651 5.01178,1.41148 -5.03903,3.46766 -4.6048,0.94206 -8.69021,2.22711 -9.07869,2.85568 -0.38848,0.62856 -1.90632,1.14286 -3.37299,1.14286 -1.46667,0 -2.3242,-0.55412 -1.90563,-1.23139 z"
           transform="translate(-35.773666,-40.534409)"
           id="path1308" />
        <path
           style="fill:#ffffff;stroke-width:1.33333"
           d="m 219.01974,98.663205 c 2.93311,-2.54386 2.93609,-2.58475 0.29168,-4 -3.76333,-2.01407 -6.30457,-1.78185 -8.89967,0.81324 -2.1019,2.10191 -2.09186,2.35369 0.1596,4 3.2536,2.379085 4.95663,2.215145 8.44839,-0.81324 z"
           id="path1303"
           transform="translate(-31.666263,-44.802767)" />
        <path
           style="fill:#000000;stroke-width:1.33333"
           d="m 215.94525,94.220682 c -0.51781,-0.837833 -0.31408,-2.150724 0.45272,-2.917534 1.79187,-1.791866 5.96952,-0.228914 5.24051,1.960588 -0.74214,2.228914 -4.51516,2.863104 -5.69323,0.956946 z"
           transform="translate(-35.773666,-40.534409)"
           id="path1306" />
        <path
           style="fill:#000000;stroke-width:1.33333"
           d="m 214.38254,98.003749 c -4.22204,-2.040265 -4.64102,-4.422144 -1.4839,-8.435769 2.39917,-3.050059 3.42568,-3.410451 7.52406,-2.641588 2.61023,0.489681 5.96002,1.74075 7.44398,2.780153 1.48394,1.039403 4.34146,1.889823 6.35002,1.889823 3.13276,0 3.85624,-0.758724 5.08902,-5.336899 1.62885,-6.049103 5.97901,-9.608365 10.34726,-8.46604 3.63431,0.950392 2.59332,3.136272 -1.49358,3.136272 -3.95138,0 -6.18798,2.409622 -6.18798,6.666667 0,4.815398 -2.32973,6.666666 -8.38969,6.666666 -3.17077,0 -6.50855,1.037404 -8.57981,2.666667 -3.74214,2.943568 -6.22998,3.195189 -10.61938,1.074048 z m 8.81091,-3.644184 c 2.93311,-2.543865 2.93609,-2.584753 0.29168,-4 -3.76333,-2.014072 -6.30457,-1.781857 -8.89967,0.813237 -2.1019,2.101912 -2.09186,2.353687 0.1596,4 3.2536,2.379086 4.95663,2.215153 8.44839,-0.813237 z"
           transform="translate(-35.773666,-40.534409)"
           id="path1304" />
        <path
           style="fill:#000000;stroke-width:1.33333"
           d="m 155.89293,120.34452 c -2.29896,-1.70413 -2.36468,-2.13957 -0.58818,-3.89676 1.1,-1.08803 4.84308,-2.39179 8.31798,-2.89724 5.24788,-0.76335 6.46486,-0.5362 7.18525,1.34112 1.20952,3.15194 -3.47872,7.72216 -6.16989,6.01458 -1.73824,-1.10293 -1.71598,-1.2717 0.17008,-1.28944 1.19353,-0.0112 2.917,-0.92042 3.82992,-2.02042 1.4347,-1.72872 0.82386,-2 -4.50342,-2 -6.31489,0 -7.88576,1.74416 -4.56325,5.06667 2.25201,2.25201 -0.53644,2.01057 -3.67849,-0.31851 z"
           transform="translate(-35.773666,-40.534409)"
           id="path1302" />
        <path
           style="fill:#000000;stroke-width:1.33333"
           d="m 167.89985,123.65584 c 6.29304,-3.28801 7.35766,-4.7593 7.38449,-10.2052 0.02,-4.07292 0.25588,-4.22183 13.42928,-8.48001 7.37488,-2.38387 13.76076,-3.98241 14.19084,-3.55233 0.89621,0.89621 0.88713,0.90005 -14.26637,6.02629 l -11.33334,3.83393 -0.75982,5.51874 c -0.9423,6.84404 -2.11774,8.0506 -8.68859,8.91851 l -5.21825,0.68926 z"
           transform="translate(-35.773666,-40.534409)"
           id="path1300" />
        <path
           style="fill:#000000;stroke-width:1.33333"
           d="m 219.33952,132.52111 c -4.93402,-1.69521 -7.98298,-6.11836 -8.01511,-11.6276 -0.0244,-4.18524 -7.33151,-12.51318 -10.06048,-11.46598 -1.07755,0.41349 -1.95918,0.16182 -1.95918,-0.55928 0,-2.25393 8.47588,-6.60003 12.66667,-6.49497 3.7942,0.0951 3.71232,0.20219 -1.59141,2.08104 l -5.59143,1.98077 3.93571,3.58063 c 2.78059,2.52973 4.28933,5.52533 5.1406,10.20657 1.25743,6.91475 4.98549,11.37407 9.50889,11.37407 1.34215,0 2.81108,0.6 3.26431,1.33333 1.06672,1.726 -1.50471,1.58205 -7.29857,-0.40858 z"
           transform="translate(-35.773666,-40.534409)"
           id="path1298" />
        <path
           style="fill:#000000;stroke-width:1.33333"
           d="m 271.35894,212.00839 c -0.0297,-0.87339 0.56075,-1.96804 1.31235,-2.43255 0.75159,-0.4645 3.47076,-5.02301 6.04261,-10.13002 10.27814,-20.40966 16.34702,-46.53579 14.67682,-63.18279 -1.13119,-11.27461 -3.37789,-21.81704 -4.84233,-22.72211 -0.684,-0.42273 -1.24363,-1.72553 -1.24363,-2.89512 0,-1.89339 -5.6079,-12.486881 -11.49588,-21.716099 -1.16962,-1.833333 0.37028,-0.670328 3.422,2.584457 7.55684,8.059702 14.14248,22.386332 16.15349,35.140882 3.37403,21.39922 -1.43737,50.4105 -11.48445,69.2479 -4.7207,8.85089 -12.44982,18.77684 -12.54098,16.10545 z"
           transform="translate(-35.773666,-40.534409)"
           id="path1296" />
        <path
           style="fill:#000000;stroke-width:1.33333"
           d="m 349.70845,405.22201 c -2.29428,-3.91855 -7.78101,-21.40444 -7.66756,-24.43605 0.0644,-1.72124 3.85455,7.50841 8.73454,21.27017 2.41768,6.81796 1.92581,8.27744 -1.06698,3.16588 z"
           transform="translate(-35.773666,-40.534409)"
           id="path1294" />
        <path
           style="fill:#000000;stroke-width:1.33333"
           d="m 338.17176,403.9297 c -1.33573,-6.24802 -3.51771,-22.87925 -4.65085,-35.44928 -1.0984,-12.1846 1.3952,-4.21133 3.05946,9.78262 0.91575,7.7 2.50335,17.49846 3.52802,21.77436 2.19505,9.1598 2.26177,10.22564 0.64018,10.22564 -0.67256,0 -1.83213,-2.85 -2.57681,-6.33334 z"
           transform="translate(-35.773666,-40.534409)"
           id="path1292" />
        <path
           style="fill:#000000;stroke-width:1.33333"
           d="m 330.01997,417.9297 c -0.83984,-5.31666 -2.1495,-12.66666 -2.91038,-16.33333 -0.7832,-3.77427 -1.16539,-17.07932 -0.88091,-30.66667 0.46976,-22.43645 0.74787,-24.65148 4.26879,-34 5.63118,-14.9516 5.67714,-15.61283 1.39558,-20.08181 -2.97733,-3.10766 -3.28448,-3.91819 -1.48481,-3.91819 1.24797,0 3.46627,1.95 4.92953,4.33333 3.0863,5.02687 2.69707,8.32259 -2.40136,20.33334 -3.08425,7.26577 -3.44822,10.08029 -3.9658,30.66667 -0.52972,21.06909 1.46702,46.5976 4.40616,56.33333 0.52832,1.75003 0.33579,3 -0.46208,3 -0.75226,0 -2.05489,-4.35 -2.89472,-9.66667 z"
           transform="translate(-35.773666,-40.534409)"
           id="path1290" />
        <path
           style="fill:#000000;stroke-width:1.33333"
           d="m 242.63809,455.35912 c -6.41456,-3.58291 -17.44656,-14.28067 -29.24915,-28.36297 -6.99805,-8.34975 -17.37984,-20.10127 -23.07063,-26.1145 -10.45534,-11.04772 -14.54538,-16.75323 -7.61202,-10.61861 9.95098,8.8046 23.5839,23.24798 33.02127,34.98433 11.68153,14.52722 23.41664,25.71515 29.91053,28.51588 2.38333,1.0279 4.33333,2.16086 4.33333,2.51768 0,1.17594 -4.61666,0.59562 -7.33333,-0.92181 z"
           transform="translate(-35.773666,-40.534409)"
           id="path1288" />
        <path
           style="fill:#000000;stroke-width:1.33333"
           d="m 230.16232,454.90297 c -12.34603,-6.62836 -27.18794,-18.68494 -35.85757,-29.12832 -9.0644,-10.91892 -6.60137,-10.03752 6.3247,2.26332 13.21781,12.57847 25.35732,21.69903 37.8314,28.42322 4.79872,2.58674 7.07548,4.41125 5.51057,4.41596 -1.46666,0.004 -7.68077,-2.68398 -13.8091,-5.97418 z"
           transform="translate(-35.773666,-40.534409)"
           id="path1286" />
        <path
           style="fill:#000000;stroke-width:1.33333"
           d="m 229.97142,464.49503 c -7.7,-2.37204 -14.87857,-4.8595 -15.95238,-5.52767 -1.07382,-0.66817 -4.97382,-1.94897 -8.66667,-2.8462 l -6.71428,-1.63133 6.41924,-0.11334 c 4.52197,-0.0799 10.63019,1.50644 20.66667,5.3672 7.83608,3.01432 15.59742,5.78427 17.24742,6.15543 1.65,0.37117 3,1.20489 3,1.85275 0,1.64006 -0.30668,1.57764 -16,-3.25679 z"
           transform="translate(-35.773666,-40.534409)"
           id="path1284" />
        <path
           style="fill:#000000;stroke-width:1.33333"
           d="m 212.63809,477.72047 c 0,-2.23044 8.96585,-4.6504 20.02725,-5.40554 6.95168,-0.47456 14.13942,-1.17284 15.97275,-1.55172 2.35068,-0.4858 2.92208,-0.26945 1.93828,0.73387 -1.56229,1.59329 -11.57784,3.51543 -24.60495,4.72208 -4.76666,0.44152 -9.71666,1.12244 -11,1.51317 -1.28333,0.39072 -2.33333,0.38539 -2.33333,-0.012 z"
           transform="translate(-35.773666,-40.534409)"
           id="path1282" />
        <path
           style="fill:#000000;stroke-width:1.33333"
           d="m 282.67338,484.14567 c -14.18268,-2.20374 -17.6193,-3.40103 -7.36862,-2.56718 22.98239,1.86954 56.85552,2.23946 68.68765,0.75014 56.7845,-7.1475 90.93322,-29.78019 103.70481,-68.73226 5.44765,-16.6148 5.77875,-24.44548 1.63488,-38.66667 -5.5286,-18.97337 -14.52487,-31.85285 -32.38248,-46.3603 -10.1702,-8.26223 -27.07303,-19.96927 -36.97819,-25.61142 -3.66667,-2.08859 -6.96667,-4.14937 -7.33333,-4.57952 -0.36667,-0.43016 -6.66667,-3.73803 -14.00001,-7.35083 -7.33333,-3.6128 -15.1992,-7.92916 -17.4797,-9.59192 -6.36632,-4.64178 -11.86048,-14.41462 -17.06131,-30.34812 -5.04315,-15.45039 -11.16931,-27.62887 -16.31209,-32.42756 -3.90839,-3.64688 -4.06476,-4.96541 -0.32515,-2.74163 8.71263,5.18102 12.16969,10.8666 18.45077,30.34463 4.84963,15.03902 9.82715,25.30998 14.3554,29.62195 2.03798,1.94063 8.80542,6.15061 15.03875,9.35551 22.54672,11.59249 46.65943,26.78989 62.66667,39.4966 29.9624,23.78447 42.34119,53.13979 34.86888,82.68876 -4.7303,18.70582 -10.96129,29.81248 -24.09133,42.94252 -10.14342,10.14342 -13.29632,12.37338 -26.80328,18.95707 -16.87871,8.22721 -35.87968,13.58395 -55.50869,15.64896 -16.86397,1.77412 -49.7642,1.34652 -63.76363,-0.82873 z"
           transform="translate(-35.773666,-40.534409)"
           id="path1280" />
        <path
           style="fill:#000000;stroke-width:1.33333"
           d="m 261.63138,489.31836 c -4.26433,-10.74023 -3.95457,-25.06777 0.60286,-27.88441 1.04765,-0.6475 1.21784,-0.14468 0.54473,1.60941 -2.18581,5.69615 -2.22095,12.73003 -0.10573,21.16428 2.51941,10.04591 1.976,12.71155 -1.04187,5.11072 z"
           transform="translate(-35.773666,-40.534409)"
           id="path1278" />
        <path
           style="fill:#000000;stroke-width:1.33333"
           d="m 207.44527,498.49432 c 2.29651,-3.72571 11.01957,-9.39995 22.79642,-14.82879 4.91531,-2.26584 9.30072,-4.70833 9.74536,-5.42777 0.44463,-0.71943 1.466,-1.30805 2.26971,-1.30805 3.36029,0 -4.00176,5.55158 -16.70295,12.59537 -7.47031,4.14287 -15.01915,8.53451 -16.7752,9.7592 -3.15968,2.20363 -3.17352,2.19543 -1.33334,-0.78996 z"
           transform="translate(-35.773666,-40.534409)"
           id="path1276" />
        <path
           style="fill:#000000;stroke-width:1.33333"
           d="m 201.97142,528.21763 c 0,-4.777 46.59519,-51.45903 48.38368,-48.47386 0.17111,0.2856 -10.64521,11.53204 -24.03628,24.99211 -13.39106,13.46006 -24.3474,24.02684 -24.3474,23.48175 z"
           transform="translate(-35.773666,-40.534409)"
           id="path1274" />
        <path
           style="fill:#000000;stroke-width:1.33333"
           d="m 319.30476,546.43158 c 0,-0.72719 1.31539,-1.73966 2.92308,-2.24992 1.60769,-0.51026 8.20769,-6.32424 14.66667,-12.91996 11.80765,-12.05763 14.21396,-13.65574 8.84036,-5.87115 -3.6713,5.31849 -10.88948,12.14717 -17.76344,16.80488 -7.75795,5.25669 -8.66667,5.70087 -8.66667,4.23615 z"
           transform="translate(-35.773666,-40.534409)"
           id="path1272" />
        <path
           style="fill:#000000;stroke-width:1.33333"
           d="m 341.97143,553.70095 c 0,-0.39571 2.1431,-4.06967 4.76245,-8.16436 4.09977,-6.40899 12.03907,-22.28111 14.30925,-28.60688 0.46671,-1.30043 0.75459,-0.95564 0.82303,0.98569 0.0579,1.64214 -1.02165,5.95154 -2.39901,9.57643 -3.40668,8.96567 -17.49572,30.07148 -17.49572,26.20912 z"
           transform="translate(-35.773666,-40.534409)"
           id="path1270" />
        <path
           style="fill:#000000;stroke-width:1.33333"
           d="m 203.44527,547.92971 c 9.94458,-10.31635 16.49285,-18.57721 26.66093,-33.63367 9.93432,-14.71033 18.40025,-24.033 21.82438,-24.033 1.70679,0 0.54952,1.64319 -3.94124,5.59611 -3.49664,3.07786 -9.25128,10.12786 -12.7881,15.66667 -3.53682,5.53881 -8.4104,12.73941 -10.8302,16.00134 -6.09614,8.21772 -25.09455,28.06922 -26.86299,28.06922 -0.79924,0 1.87252,-3.45 5.93722,-7.66667 z"
           transform="translate(-35.773666,-40.534409)"
           id="path1268" />
        <path
           style="fill:#000000;stroke-width:1.33333"
           d="m 356.74428,568.3597 c -0.0584,-0.68018 1.65019,-6.08018 3.79688,-12 5.43099,-14.9768 9.39722,-28.93939 11.36592,-40.01235 1.24318,-6.99212 1.9541,-8.76191 2.76032,-6.87163 1.44924,3.39792 -1.48481,20.48742 -5.5147,32.12066 -3.41282,9.85188 -12.22798,28.86501 -12.40842,26.76332 z"
           transform="translate(-35.773666,-40.534409)"
           id="path1266" />
        <path
           style="display:inline;fill:#000000;stroke-width:1.33333"
           d="m 356.18671,582.7613 c -7.4065,-8.74339 -45.63974,-31.29382 -58.55176,-34.53452 -2.01494,-0.50572 -3.64022,-1.30444 -3.61172,-1.77495 0.0285,-0.47049 3.1684,-2.35545 6.97757,-4.18879 7.77517,-3.74213 22.95387,-14.95356 34.97063,-25.83029 l 8,-7.24106 -4.66667,-0.70901 c -2.56667,-0.38995 -9.46667,-1.33736 -15.33333,-2.10535 -5.86667,-0.76798 -17.86667,-2.34645 -26.66667,-3.5077 -8.8,-1.16126 -20.89476,-1.9228 -26.87726,-1.69232 -9.8695,0.38024 -11.35185,0.80278 -16,4.56081 -2.8175,2.27797 -9.62274,10.73152 -15.12274,18.78567 -5.5,8.05415 -11.05455,16.09036 -12.34343,17.85825 -5.17124,7.09306 -18.0933,19.0243 -25.43402,23.48383 -7.2483,4.40337 -19.34232,9.05519 -20.50898,7.88852 -0.28239,-0.28239 0.68769,-4.07892 2.15574,-8.43676 2.66835,-7.92087 3.81039,-13.49459 10.17914,-49.67936 1.86746,-10.61031 4.76101,-23.21823 6.43006,-28.01763 l 3.03467,-8.72617 -3.65821,-5.04494 c -5.53599,-7.63453 -10.69674,-21.15122 -21.07804,-55.20621 -5.18964,-17.02418 -10.94526,-34.36642 -12.79026,-38.53828 -1.845,-4.17188 -3.12478,-7.815 -2.84396,-8.09583 0.28082,-0.28083 3.73859,0.75329 7.68394,2.29803 21.52273,8.4269 37.91841,21.20102 62.38245,48.60309 27.23986,30.51127 30.25059,32.71658 49.30566,36.11551 13.69104,2.44212 48.40348,2.39297 63.71407,-0.0903 15.94746,-2.58648 31.62485,-7.6428 39.02857,-12.58761 34.82308,-23.25772 31.37379,-55.82543 -7.96949,-75.24668 -11.10024,-5.47948 -30.35494,-12.21571 -31.53735,-11.03328 -0.88467,0.88466 4.97608,15.91916 9.73849,24.98205 2.72946,5.19416 7.99016,12.45557 11.69046,16.13647 5.71227,5.6823 6.42391,6.92278 4.71441,8.21784 -1.10737,0.83892 -6.67002,5.05365 -12.36143,9.36608 -5.69141,4.31241 -15.02009,12.23591 -20.73038,17.60775 l -10.38236,9.76697 -3.52983,-15.60775 c -4.78043,-21.13744 -7.55659,-43.99195 -7.55659,-62.20883 v -15.1312 l -9.66666,-2.05452 c -5.31667,-1.12998 -12.36667,-2.46585 -15.66667,-2.96861 -19.71716,-3.00389 -44.56876,-12.24983 -60.82511,-22.62975 l -6.82512,-4.35793 -11.17488,1.28394 c -11.67868,1.34183 -18.58443,0.95175 -40.16612,-2.26882 -23.06729,-3.44228 -27.2943,-2.6654 -43.67545,8.02717 -11.38501,7.4314 -14.16711,10.76459 -15.23976,18.25848 -1.15625,8.07786 -3.37402,10.00674 -8.88218,7.72519 -3.44329,-1.42627 -4.32638,-1.39801 -5.347805,0.17107 -1.63993,2.51921 -0.25388,7.91581 2.901915,11.2987 4.05767,4.34966 3.15206,7.83984 -3.569375,13.7563 -6.32469,5.56721 -19.53137,11.49274 -22.81036,10.23448 -1.44309,-0.55378 -1.66474,-2.56608 -0.99803,-9.06095 1.19708,-11.66157 2.64647,-16.62207 6.48447,-22.19292 2.0149,-2.92463 3.85899,-8.23395 4.68534,-13.48951 1.53422,-9.75773 -0.27397,-7.71897 24.833415,-28 16.16921,-13.06103 20.60904,-17.11701 20.60904,-18.82729 0,-2.9575 9.29517,-7.13426 19.22339,-8.63796 5.92713,-0.89771 13.65128,-2.92427 17.16477,-4.50346 l 6.38816,-2.87125 -5.72149,-2.98889 c -3.14683,-1.6439 -12.00885,-6.55491 -19.69341,-10.91336 l -13.97191,-7.92446 -13.36142,0.0484 c -17.66777,0.064 -32.694755,4.95665 -32.694755,10.64509 0,2.75667 -5.40263,8.63983 -7.93414,8.63983 -1.324,0 -3.30907,-1.35 -4.41128,-3 -2.00156,-2.99632 -2.00761,-2.99678 -4.93611,-0.36335 -2.28986,2.05912 -2.74483,3.51937 -2.07712,6.66667 2.08647,9.83466 1.64621,11.58241 -3.60941,14.32882 -9.98542,5.21804 -28.08519,6.38647 -29.79776,1.9236 -1.14055,-2.97222 7.83278,-17.29508 15.59311,-24.88908 4.12167,-4.03333 9.38063,-10.41425 11.68657,-14.17981 4.74029,-7.74083 3.70074,-7.22925 32.15281,-15.82303 11.366655,-3.43324 23.344145,-7.78711 26.616615,-9.67525 7.04437,-4.06447 13.79766,-4.34346 23.38338,-0.966 4.9926,1.7591 10.34962,2.30088 21.33334,2.1575 8.06666,-0.10533 18.41666,0.60943 23,1.58829 6.13242,1.30969 8.33333,1.3751 8.33333,0.24769 0,-0.84263 0.95859,-4.75999 2.1302,-8.70523 1.63223,-5.49628 4.08533,-9.21531 10.49351,-15.90867 8.35488,-8.7267 10.38733,-12.76698 11.93893,-23.73312 1.47059,-10.39352 6.89507,-24.94905 12.52931,-33.61996 3.06609,-4.71862 5.57472,-10.035 5.57472,-11.8142 0,-2.86739 -0.44463,-3.14595 -3.91393,-2.45209 -2.15267,0.43053 -7.40267,-0.13877 -11.66667,-1.2651 -5.59619,-1.47824 -10.52008,-1.79608 -17.7013,-1.14262 -12.56038,1.14295 -15.21528,2.18123 -22.31773,8.72804 -5.51887,5.08712 -6.11077,5.30136 -14.08071,5.09651 -4.57581,-0.1176 -9.06966,-0.80911 -9.98633,-1.53666 -4.76341,-3.78065 1.083,-10.69578 10.28711,-12.16758 3.37317,-0.53939 5.37956,-1.57093 5.37956,-2.76578 0,-5.25821 -9.21147,-4.95019 -15.43734,0.51619 -5.53938,4.86364 -7.70642,5.09412 -10.49282,1.11597 -1.66383,-2.37545 -1.9102,-5.11715 -1.22809,-13.66667 0.46931,-5.8823 1.39302,-11.74509 2.05267,-13.02842 1.88872,-3.67437 6.63395,-6.18779 17.22151,-9.12175 14.16427,-3.925115 29.99973,-12.543579 38.03232,-20.699113 7.28008,-7.39152 11.92795,-10.300144 18.83646,-11.787797 2.37493,-0.51141 4.63124,-1.436586 5.01402,-2.05595 0.38279,-0.619364 -1.41033,-5.748108 -3.9847,-11.39721 -2.57439,-5.649101 -4.6807,-10.483324 -4.6807,-10.742717 0,-1.1118 7.7284,2.900368 12.23536,6.351937 l 4.90202,3.754122 -0.77562,-7.515046 -0.77562,-7.515047 4.31132,2.530954 c 5.47261,3.212685 15.41366,12.953319 18.4284,18.05687 2.80218,4.743728 6.1615,5.807417 18.34081,5.807417 7.92198,0 11.14794,-0.789172 21.33334,-5.218808 10.51222,-4.571774 13.23981,-5.21243 22,-5.167355 10.43973,0.05372 10.9528,0.12552 25.87484,3.620792 9.64826,2.259971 21.59729,1.303215 25.64141,-2.0531 4.27511,-3.548029 1.33138,1.40544 -3.84958,6.477747 -8.49702,8.31882 -13.92413,10.110298 -27.61233,9.114774 -10.27269,-0.747118 -10.99602,-0.651488 -7.38768,0.976686 2.2,0.992694 8.07791,2.901487 13.06202,4.241763 7.66474,2.061123 10.09608,2.198175 15.76839,0.88885 10.62322,-2.452132 19.76149,-1.928239 25.70952,1.473918 5.3678,3.070286 13.8374,12.378529 12.4896,13.726319 -0.41819,0.418191 -3.25179,0.08947 -6.2969,-0.730492 -8.31954,-2.24022 -20.2271,-1.896933 -26.18653,0.754939 l -5.21276,2.319614 6.66667,0.943897 c 3.66666,0.519143 9.66666,2.013556 13.33333,3.320916 4.21628,1.50333 12.57192,2.67092 22.73285,3.17661 12.33908,0.6141 16.92734,1.36498 19.77826,3.23678 3.94373,2.58929 11.57386,10.58895 10.81941,11.3434 -0.247,0.247 -4.89371,-0.53975 -10.32601,-1.74832 -9.10296,-2.02522 -10.59887,-2.02998 -19.08996,-0.0608 -12.20418,2.83033 -21.06863,2.80789 -32.28587,-0.0817 -7.32332,-1.88654 -10.19504,-2.08239 -13.77386,-0.9394 l -4.52149,1.44406 5.83219,0.13611 c 3.61119,0.0843 9.92903,1.98589 16.59017,4.99349 l 10.758,4.85737 13.53122,-2.05043 c 14.49768,-2.19688 22.1391,-1.5977 27.91854,2.18914 3.14263,2.05913 12.59429,13.73198 12.67017,15.64773 0.0181,0.45898 -4.01695,-0.65855 -8.96695,-2.48342 -11.70615,-4.31558 -22.88863,-4.44516 -36.93206,-0.42797 -7.25113,2.07423 -12.69465,2.83043 -17.23454,2.3942 l -6.6358,-0.63761 3.9012,2.07881 c 3.06288,1.63211 7.76916,2.02191 21.9012,1.81396 15.97332,-0.23503 18.49165,0.0369 22.36657,2.41528 4.56489,2.80187 6.96676,7.22637 6.96676,12.83356 v 3.31439 l -4.33333,-3.20402 c -8.6276,-6.37913 -15.0359,-7.13748 -29.88591,-3.53664 -7.80373,1.89226 -14.56296,2.68224 -20.02221,2.34011 -4.5328,-0.28408 -7.95234,-0.0487 -7.59899,0.52301 0.35335,0.57174 4.90477,2.33416 10.11427,3.9165 9.97686,3.03037 8.75452,3.07374 29.72617,-1.05478 l 4,-0.78745 -5.33333,5.61343 c -8.04471,8.46718 -14.12914,11.0977 -26.66667,11.52894 -6.47055,0.22256 -12.6704,-0.33958 -15.76024,-1.42901 -5.06004,-1.78408 -5.07762,-1.77827 -2.66982,0.88232 3.67159,4.05707 9.15399,6.46093 18.79199,8.23975 l 8.72878,1.611 -8.42975,3.78304 c -7.29092,3.27197 -9.52833,3.68045 -16.56177,3.02366 -4.47263,-0.41766 -9.32466,-1.15437 -10.78229,-1.63712 -1.67161,-0.55362 -0.57682,1.14014 2.9648,4.58691 4.53263,4.41123 6.58883,5.47388 10.66667,5.51259 l 5.05163,0.048 -3.93089,3.21282 c -6.62605,5.41563 -13.06277,5.65531 -22.41022,0.83446 -7.08128,-3.65215 -18.32556,-5.74466 -18.32556,-3.41035 0,1.84454 4.01353,8.19682 6.69963,10.6036 1.63496,1.46493 7.40729,7.87837 12.82741,14.25209 5.42013,6.37371 12.61703,13.45278 15.99309,15.73126 l 6.13831,4.14269 2.09756,-3.06459 c 13.24055,-19.34481 57.69267,-50.83541 78.24401,-55.42931 l 5.33333,-1.19217 0.132,13.44511 c 0.26691,27.19465 9.95923,49.05439 34.63372,78.11177 5.29312,6.23334 11.78621,13.40104 14.42909,15.92823 2.64288,2.52719 4.80523,4.94304 4.80523,5.36856 0,0.42553 -2.40473,0.54436 -5.34384,0.26407 -8.44401,-0.80527 -34.10228,6.30688 -36.44844,10.10304 -0.41399,0.66985 1.91273,4.7695 5.17049,9.11034 15.93239,21.22927 24.54035,48.54799 22.84094,72.48937 -3.37531,47.55157 -43.62576,91.99515 -95.54325,105.49649 -8.42125,2.18999 -8.68673,2.39219 -9.73225,7.41232 -2.48129,11.9141 -8.08868,31.22535 -12.51636,43.10507 -4.51397,12.1112 -14.27551,33.13164 -16.19408,34.87226 -0.49494,0.44902 -2.603,-1.19415 -4.6846,-3.65148 z m 14.75691,-25.2835 c 3.70714,-8.86146 8.63897,-24.7147 11.78465,-37.88142 4.65627,-19.48955 4.44469,-19.13881 12.74743,-21.13251 7.47173,-1.79416 8.65928,-2.22296 18.49573,-6.67838 3.3,-1.49473 7.66165,-3.33834 9.69257,-4.09692 5.4323,-2.02904 23.42855,-14.45524 25.31915,-17.48258 0.89636,-1.43528 2.32923,-2.60962 3.18416,-2.60962 2.31912,0 18.15672,-17.5836 21.17784,-23.51256 1.44446,-2.83476 3.01171,-5.4541 3.48279,-5.82077 2.50092,-1.94661 9.58868,-18.58545 12.03368,-28.2496 5.32039,-21.02952 1.4858,-48.29232 -9.62305,-68.41707 -9.31838,-16.88111 -25.47088,-35.46248 -40.59939,-46.70432 -2.93274,-2.1793 -6.49587,-5.01235 -7.91808,-6.29568 -1.4222,-1.28334 -3.09779,-2.33334 -3.7235,-2.33334 -0.62572,0 -2.39594,-1.17225 -3.93382,-2.60501 -1.5379,-1.43276 -8.8628,-5.67429 -16.27759,-9.42564 -7.41479,-3.75135 -18.28143,-9.46592 -24.14809,-12.69905 -5.86667,-3.23314 -11.99416,-6.4682 -13.61666,-7.18902 -7.81804,-3.47329 -15.20276,-9.97745 -27.78511,-24.47199 -7.54677,-8.69368 -14.78661,-18.01228 -16.08853,-20.708 -1.92528,-3.98641 -2.56105,-10.37668 -3.40605,-34.23462 -0.97299,-27.47218 -1.2815,-30.02103 -4.86211,-40.17181 -8.51435,-24.13747 -23.13448,-43.402158 -44.50838,-58.647888 l -11.12369,-7.934381 -3.07281,3.710373 c -1.69006,2.040705 -3.88066,3.710373 -4.86802,3.710373 -1.65498,0 -5.56796,-8.70963 -4.94197,-11 0.15033,-0.55 -0.32668,-1 -1.06001,-1 -0.73334,0 -1.35242,-1.35 -1.37574,-3 -0.0233,-1.650001 -0.93425,-4.179617 -2.02428,-5.62137 -1.84572,-2.441288 -1.92242,-2.303893 -1.11668,2 0.47584,2.541754 0.93678,5.157839 1.02427,5.813523 0.31307,2.345945 -10.65928,8.69028 -18.94561,10.954574 -6.78408,1.853792 -9.13623,3.240605 -12,7.075152 -3.74366,5.012692 -8.25287,9.325531 -9.82846,9.40043 -0.51324,0.0244 -3.51324,1.78011 -6.66667,3.901585 -6.12346,4.119571 -21.52672,10.648379 -32.30616,13.693269 -8.49878,2.40066 -10.92877,6.51205 -11.10137,18.78283 -0.14624,10.39693 1.54896,11.53486 7.99032,5.36364 6.86003,-6.57232 19.68371,-3.68558 19.68371,4.43099 0,3.65824 -0.94644,4.31964 -9.05091,6.32512 -4.10501,1.0158 -6.40473,2.34805 -6.69801,3.88025 -0.37006,1.93339 0.54145,2.33022 5.31782,2.31514 8.66108,-0.0273 11.46792,-1.1873 14.41603,-5.95742 3.69428,-5.97748 3.41749,-10.80317 -0.84629,-14.75472 -3.09694,-2.87014 -3.21759,-3.26967 -0.9874,-3.26967 1.39734,0 3.33902,1.27843 4.31484,2.84096 1.57093,2.51547 2.63881,2.75878 9.32073,2.12364 4.15059,-0.39452 8.69495,-1.17492 10.09857,-1.73421 1.71002,-0.68136 2.25488,-0.53604 1.65139,0.44045 -0.86921,1.40641 -2.79788,1.94084 -12.91772,3.57946 -3.49029,0.56515 -4.71429,1.42641 -4.71429,3.31719 0,2.04393 0.4781,2.29798 2.39453,1.27234 3.95321,-2.1157 28.93671,-2.07506 35.86567,0.0583 5.25153,1.61693 6.81932,1.62712 10.58149,0.0688 9.66096,-4.0017 16.60091,-13.76469 18.62503,-26.20135 0.9886,-6.07414 0.73045,-8.72017 -1.47147,-15.082797 -3.21566,-9.29193 -2.99348,-16.579021 0.60146,-19.725364 2.5019,-2.189703 2.56966,-2.173119 1.53605,0.375901 -2.25677,5.565438 -2.23629,10.043433 0.0773,16.907757 5.33527,15.829163 1.73018,31.072503 -9.99616,42.266513 -5.03088,4.8025 -5.52608,5.65958 -2.78537,4.82081 9.79532,-2.99776 18.55765,-13.08588 21.24823,-24.46316 l 1.15061,-4.86524 0.13394,4.37616 c 0.28322,9.25426 -6.7653,20.2003 -16.77147,26.04536 -4.21801,2.46392 -7.22561,5.44353 -8.74813,8.66666 -1.27612,2.70151 -4.09776,7.31183 -6.27032,10.24516 -4.44778,6.00524 -8.55895,18.20919 -10.72404,31.83408 -0.80123,5.04207 -2.34863,10.89207 -3.43868,13 -2.2235,4.29975 -2.15115,4.36389 2.79922,2.48177 1.95411,-0.74294 8.88776,-2.51516 15.40811,-3.93825 6.52036,-1.42309 15.42279,-4.32795 19.78317,-6.45524 7.17859,-3.50221 7.72611,-3.60017 5.79226,-1.0364 -2.83655,3.76049 -13.13306,8.15304 -27.02952,11.53093 -6.23334,1.51518 -12.23334,3.1144 -13.33334,3.55383 -1.1,0.43944 -2.3,0.88028 -2.66666,0.97967 -8.54391,2.3158 -15.66309,7.58426 -18.08674,13.38488 -0.99208,2.37438 -2.72843,10.50097 -3.85853,18.05908 -3.34383,22.36339 -2.4551,30.60565 3.3001,30.60565 1.72552,0 2.89247,-1.22794 3.48452,-3.66666 4.9119,-20.23254 19.74222,-33.85882 39.03694,-35.86762 10.48823,-1.09195 10.36103,1.45963 -0.1448,2.90455 -9.87839,1.35863 -16.89443,4.81292 -23.33437,11.48851 -5.00028,5.18325 -12.11171,17.87108 -10.76911,19.21368 0.28463,0.28462 2.97555,-0.69866 5.97984,-2.18506 3.94428,-1.95148 7.44431,-2.58317 12.59391,-2.273 l 7.13157,0.42955 -5.33333,1.03719 c -9.11603,1.77282 -15.61035,4.04608 -18.52887,6.48578 -2.72556,2.2784 -2.52312,2.34567 7.19553,2.39079 11.86231,0.0551 17.83971,2.55659 22.40332,9.37563 5.22222,7.80314 2.10627,15.91145 -8.50416,22.12958 -5.1215,3.0014 -8.11578,3.68154 -18.34322,4.16655 -10.26119,0.48661 -14.36226,0.007 -25.55594,-2.99251 -24.57769,-6.58462 -25.06871,-6.63597 -34.33941,-3.59074 -8.29726,2.72548 -21.01648,5.66853 -24.05955,5.56706 -3.18116,-0.106 5.22663,-3.66166 12.0844,-5.11042 3.86033,-0.81552 9.1836,-2.38728 11.82951,-3.4928 7.0253,-2.93538 13.10926,-2.5047 30.72828,2.1752 25.25921,6.70926 40.39845,5.77128 50.5378,-3.13119 5.60352,-4.91995 5.96151,-9.84139 1.13327,-15.57943 -3.98247,-4.73289 -10.25644,-6.79013 -20.73964,-6.80053 -8.25023,-0.008 -29.63789,3.31296 -33.84133,5.25499 -10.54385,4.87138 -27.25656,10.74005 -30.62008,10.75225 -10.69134,0.0388 -13.91938,1.50788 -23.06772,10.49836 -9.82732,9.65775 -11.89964,11.45359 -27.64554,23.95727 -10.935765,8.684 -15.231975,14.84236 -15.298355,21.92924 -0.035,3.73231 -2.88828,10.49828 -6.01668,14.26712 -0.91307,1.1 -2.03308,3.57403 -2.48891,5.49785 l -0.82878,3.49784 7.9561,-1.66028 c 9.68443,-2.02094 9.34573,-0.30056 -0.50459,2.563 -6.68804,1.94427 -7.18188,2.38104 -7.93426,7.01744 -0.44128,2.71927 -0.64552,5.10092 -0.45387,5.29258 0.7798,0.7798 15.1142,-6.5831 17.90269,-9.19576 3.13165,-2.93419 4.075385,-9.524 1.58442,-11.0635 -2.70762,-1.6734 -3.85706,-7.05869 -2.39922,-11.24065 1.59187,-4.56644 6.075995,-6.39959 10.223995,-4.17965 2.97224,1.5907 4.25746,-0.19292 4.25746,-5.90851 0,-5.71435 3.02725,-9.97708 11.23812,-15.82468 11.31648,-8.05935 20.62723,-12.5114 28.24575,-13.50608 3.96873,-0.51816 14.59554,0.23842 27.18281,1.93528 22.59562,3.04606 36.78089,2.55701 57.42812,-1.97988 l 10.06752,-2.21216 6.94416,3.51886 6.94416,3.51887 2.97469,-3.19893 c 1.63607,-1.75942 4.41102,-5.22968 6.16652,-7.7117 4.11967,-5.82456 13.48218,-13.38936 19.08199,-15.41802 5.10218,-1.84839 15.20492,-2.06496 19.05951,-0.40859 1.86696,0.80227 0.0461,1.17401 -6.07155,1.23961 -13.2402,0.142 -20.00788,4.09823 -29.67579,17.34776 -4.26102,5.8396 -8.84352,10.96539 -10.18333,11.39062 -1.37537,0.43653 -5.25215,-0.72419 -8.90397,-2.6659 -5.19284,-2.76105 -7.52243,-3.2655 -11.81667,-2.55877 -9.26625,1.52503 -9.51395,2.43485 -1.97917,7.26991 10.90744,6.99928 28.25382,13.24341 49.96381,17.98532 11,2.40263 22.19996,4.68775 24.8888,5.07805 l 4.88879,0.70966 0.93723,-11.25126 c 0.51546,-6.18818 1.33293,-11.49581 1.81657,-11.79473 0.48365,-0.29891 0.89284,12.76 0.90932,29.0198 0.0303,29.90931 1.27107,43.75497 6.10885,68.1692 3.02827,15.28243 3.59691,16.61028 5.81438,13.57771 0.89296,-1.22119 3.75818,-3.86209 6.36718,-5.86865 2.609,-2.00658 9.5835,-7.64722 15.49887,-12.53475 5.91537,-4.88754 11.50855,-9.16254 12.42928,-9.49999 1.08482,-0.3976 -0.0376,-2.4322 -3.18868,-5.78024 -13.40133,-14.23895 -23.79959,-39.2744 -23.74367,-57.16668 0.0244,-7.79989 1.81006,-5.89155 3.14271,3.3586 l 0.86804,6.02527 14.64283,4.51037 c 26.32657,8.10929 43.28924,20.30791 51.45915,37.0066 3.11032,6.35727 3.4371,8.26493 2.724,15.90149 -1.04392,11.17907 -5.76531,19.91217 -15.7756,29.17993 -18.32882,16.96925 -50.03023,24.75926 -92.78313,22.79968 C 265.08665,462.61105 260.9647,460.6782 236.59012,432.93604 215.7055,409.166 197.99855,392.7383 187.15899,387.0761 c -1.75316,-0.91578 -6.05886,-3.27337 -9.56821,-5.23906 -7.51401,-4.20884 -9.47389,-4.52263 -7.74887,-1.24067 1.88716,3.59044 4.64843,12.12456 12.83439,39.66667 6.60493,22.22267 9.76172,31.18291 15.73653,44.66667 0.81238,1.83333 3.19084,5.57706 5.2855,8.31941 l 3.80844,4.98607 -2.83058,7.5654 c -3.84986,10.28968 -7.69876,27.27111 -10.12689,44.68008 -1.11161,7.96995 -3.38012,19.88141 -5.04113,26.46992 -1.661,6.58852 -2.4789,11.97912 -1.81754,11.97912 0.66136,0 2.7951,-1.07163 4.74163,-2.38139 1.94653,-1.30976 5.33916,-3.25976 7.53916,-4.33333 7.1176,-3.47329 25.12363,-22.83951 34.57387,-37.1856 18.92023,-28.72215 23.47452,-30.69619 60.0928,-26.04694 38.29391,4.86202 48.73268,5.90367 60.66667,6.05376 12.66716,0.15931 12.76515,2.14143 0.12,2.42726 -5.37085,0.12133 -6.58312,0.8461 -14,8.36936 -10.7028,10.85631 -21.53571,19.9416 -29.95272,25.12064 -6.41095,3.94469 -8.6226,6.64291 -5.44501,6.64291 2.05428,0 18.70426,7.92684 22.9444,10.92353 2.01666,1.42525 3.67585,2.10053 3.68708,1.50059 0.0107,-0.59994 0.46122,-0.44244 1,0.34997 0.53877,0.79241 5.47958,4.46737 10.97958,8.16657 5.5,3.6992 11.19331,8.05647 12.6518,9.6828 l 2.6518,2.95699 4.68154,-9.89077 c 2.57484,-5.43994 5.41901,-11.65364 6.32039,-13.80826 z M 471.05523,307.61954 c 7.8396,-4.08007 18.2678,-6.68984 26.73148,-6.68984 h 4.78464 l -9.40168,-9.66667 c -28.06986,-28.86098 -41.8649,-56.98752 -41.8649,-85.35783 v -10.59793 l -3.66667,0.89223 c -14.27012,3.4724 -45.22167,23.29716 -61.43275,39.34825 -9.16532,9.07487 -14.50751,15.66442 -13.41453,16.54672 0.28266,0.22818 11.31394,5.9853 24.51394,12.7936 13.2,6.8083 27.50659,14.85288 31.79243,17.87684 9.30417,6.56476 24.01235,18.88234 29.45703,24.66922 2.15387,2.28922 4.12844,4.16224 4.38795,4.16224 0.2595,0 3.91038,-1.78958 8.11306,-3.97683 z M 57.396085,296.26809 c 10.33031,-3.13419 10.59646,-3.45296 8.65939,-10.37151 -1.42603,-5.09329 -1.35648,-6.55043 0.48242,-10.10647 2.84,-5.49196 7.91066,-6.79626 11.88955,-3.05829 l 2.97506,2.79492 2.5457,-4.72708 c 1.40014,-2.59991 4.23165,-5.92759 6.29225,-7.39487 6.12818,-4.36364 20.637465,-7.94352 32.397625,-7.99345 11.4007,-0.0484 17.18392,1.90437 30.00001,10.12995 3.3,2.118 10.43629,6.2455 15.85841,9.17224 l 9.85843,5.32134 9.4749,-2.36521 9.47492,-2.3652 v -16.45683 -16.45682 l -9.33333,-1.45514 c -16.73927,-2.60976 -18.57956,-2.72002 -25.74537,-1.54253 -5.87726,0.96576 -8.99191,0.61173 -18.35097,-2.08592 l -11.27226,-3.24912 -8.3157,3.9866 c -4.57364,2.19263 -11.91571,5.00396 -16.31571,6.24739 -4.4,1.24344 -9.041845,2.79558 -10.315235,3.4492 -1.27338,0.65362 -3.40338,1.18841 -4.73333,1.18841 -1.32995,0 -2.99066,0.57257 -3.69047,1.27239 -0.69981,0.6998 -5.09115,2.16322 -9.75852,3.25205 -9.22652,2.1524 -11.2696,3.81609 -15.88351,12.93408 -1.67625,3.31261 -4.84455,7.08433 -7.04067,8.38161 -4.87243,2.87822 -9.3693,7.5466 -8.54855,8.87462 0.33229,0.53765 3.29756,1.38145 6.58949,1.8751 9.01857,1.35242 8.32544,2.92504 -1.04441,2.36966 l -8.24145,-0.48852 -2.88923,5.43117 -2.88923,5.43117 h 5.64723 c 3.10597,0 8.60612,-0.89772 12.22256,-1.99494 z M 359.94169,209.04538 c 2.50967,-0.98052 2.47774,-1.11543 -0.6617,-2.79562 -3.31048,-1.7717 -27.97523,-26.10814 -27.97523,-27.60284 0,-0.43845 1.07976,0.17998 2.39947,1.3743 4.44857,4.0259 20.1919,11.6299 26.58694,12.84144 3.49081,0.66133 8.44693,0.75456 11.01359,0.20717 l 4.66667,-0.99525 -6.66667,-3.46442 c -3.66666,-1.90541 -9.95297,-6.8199 -13.96957,-10.92108 -4.0166,-4.10117 -10.7666,-9.62836 -15,-12.28264 -14.19739,-8.90154 -7.5207,-7.39602 8.05982,1.81742 18.21235,10.76974 28.71634,12.89252 41.87486,8.46256 4.60252,-1.5495 9.86823,-4.026 11.70156,-5.50334 l 3.33333,-2.68606 -6.66666,1.04966 c -17.13852,2.69848 -25.88051,0.37582 -36.66667,-9.74201 -3.23604,-3.03552 -7.58494,-5.1816 -14.18596,-7.00045 -10.65104,-2.9348 -15.14738,-4.99847 -15.14738,-6.95218 0,-0.72443 1.35,-0.46836 3,0.56905 1.65,1.03742 6,2.30679 9.66667,2.82085 3.66667,0.51404 11.10116,2.97908 16.52111,5.47785 10.87652,5.01445 15.82369,5.48613 26.81223,2.55637 4.03333,-1.07536 11.53333,-2.31749 16.66666,-2.7603 8.2138,-0.70854 10.09302,-0.4139 15.66667,2.45636 6.47487,3.33433 7.49032,3.2298 4.62427,-0.47604 -5.04104,-6.5181 -12.74459,-8.09886 -29.28774,-6.0098 -9.36516,1.18262 -19.81856,-1.52987 -25.66986,-6.66095 -5.87492,-5.15177 -9.48363,-6.26151 -21.36349,-6.5696 -12.02809,-0.31194 -17.55909,-2.46513 -21.86473,-8.51184 -4.15501,-5.83518 -3.34683,-6.32267 1.85621,-1.11963 5.46506,5.46506 12.14862,7.4587 22.20814,6.62449 5.67848,-0.4709 9.25017,0.14398 15.90976,2.73895 13.48872,5.256 16.91443,5.43635 31.45881,1.65615 16.75912,-4.35582 21.48984,-4.34368 36.46196,0.0936 3.09206,0.91639 3.18999,0.81327 1.35291,-1.42466 -1.08924,-1.32691 -4.34411,-3.90469 -7.23304,-5.72839 -4.70409,-2.96956 -6.16815,-3.22794 -14.01957,-2.47413 -29.12831,2.79656 -28.01946,2.85507 -37.43363,-1.97534 -8.1882,-4.20136 -9.63336,-4.4862 -26.17702,-5.15944 l -17.51036,-0.71257 -7.1563,-6.5756 c -3.93598,-3.61659 -7.45632,-6.84112 -7.82299,-7.16564 -0.36667,-0.32452 0.74256,-0.15626 2.46496,0.3739 1.7224,0.53016 5.4724,3.30469 8.33333,6.16563 6.19394,6.19393 10.86282,6.68981 23.86838,2.53504 9.99625,-3.19341 13.47001,-3.29176 23.54841,-0.66667 9.59052,2.49802 21.3992,2.56899 27.28876,0.16401 4.706,-1.92168 16.79376,-2.03429 22.49616,-0.20957 3.30148,1.05644 3.3095,1.03993 0.83878,-1.72704 -3.84012,-4.30057 -10.31554,-5.82091 -21.2482,-4.98879 -8.54935,0.65073 -11.64768,0.19403 -23.71246,-3.49521 -12.29876,-3.76078 -15.54722,-4.22264 -28.54479,-4.05837 -13.88382,0.17546 -15.1231,-0.0363 -23.21801,-3.967099 -7.67881,-3.728756 -9.08727,-4.009404 -13.80372,-2.750511 -4.86611,1.29884 -5.09172,1.241276 -3.06771,-0.782734 3.52203,-3.522022 12.48642,-2.721528 18.75611,1.674866 4.7824,3.353485 6.17208,3.674831 13.45291,3.110826 4.88625,-0.378508 11.49392,-2.143287 16.59324,-4.431724 8.826,-3.960876 21.36993,-5.150007 29.73224,-2.818534 5.2772,1.471324 3.49329,-0.862442 -4.02889,-5.270741 -6.69328,-3.922522 -12.37846,-4.416442 -29.08283,-2.526676 -8.63256,0.976602 -10.15486,0.73826 -20.27475,-3.174392 -15.21743,-5.88351 -18.60536,-6.217355 -29.50323,-2.90723 -9.28441,2.820052 -18.79094,3.967306 -12.88869,1.555411 1.46667,-0.599337 7.76667,-2.690198 14,-4.646358 10.03847,-3.150293 13.23755,-3.527549 28,-3.301929 13.77204,0.210481 17.53505,-0.167617 21.66667,-2.17702 2.75,-1.337458 5.00081,-2.770614 5.00181,-3.184791 0.001,-0.414179 -3.16747,-0.555147 -7.04104,-0.313264 -4.13272,0.258065 -11.64681,-0.706075 -18.18499,-2.333333 -6.12817,-1.525216 -13.63365,-2.77312 -16.67882,-2.77312 -7.46566,0 -18.97531,3.124169 -26.76144,7.264094 -5.06823,2.694802 -8.36882,3.41743 -15.86745,3.474001 l -9.46808,0.07143 4.66667,3.595238 c 7.81963,6.024309 26.3255,25.114717 30.24094,31.19616 5.46833,8.49338 6.99129,11.51723 10.60972,21.06573 5.4854,14.47518 6.25289,19.62853 7.04937,47.33334 l 0.76664,26.66667 7.70484,0.82789 c 4.40613,0.47345 8.79241,1.81213 10.24508,3.12679 2.17077,1.96452 11.33789,6.00105 13.38341,5.89308 0.36667,-0.0193 1.85328,-0.49879 3.3036,-1.06542 z M 257.55757,69.384296 c 1.61961,-2.439267 1.34247,-3.417371 -2.58191,-9.112016 -2.41794,-3.508686 -6.32674,-7.868158 -8.68621,-9.687716 l -4.28993,-3.308291 3.98908,7.826713 c 2.194,4.304693 4.62125,10.115522 5.3939,12.912954 1.49456,5.411186 3.23471,5.796788 6.17507,1.368356 z m -19.01473,-6.295323 c 1.18377,-1.946196 0.51998,-3.118465 -3.87351,-6.840765 -2.91616,-2.47065 -5.50181,-4.29238 -5.74591,-4.048292 -0.24408,0.244089 0.79187,2.74926 2.30211,5.567045 1.51024,2.817787 2.74589,5.932134 2.74589,6.920771 0,2.351491 2.75464,1.388112 4.57142,-1.598759 z"
           transform="translate(-35.773666,-40.534409)"
           id="path1233-6" />
      </g>
    </g>
  </g>
</svg>
